<mxfile host="app.diagrams.net" modified="2023-06-22T17:25:52.452Z" agent="Mozilla/5.0 (Windows NT 10.0; Win64; x64) AppleWebKit/537.36 (KHTML, like Gecko) Chrome/114.0.0.0 Safari/537.36 Edg/114.0.1823.51" version="21.5.0" etag="yrYZyUWrNaVr2-FWKh7r" type="github">
  <diagram name="PÃ¡gina-1" id="oQfDVZH_HqWyL5-F-0gN">
    <mxGraphModel>
      <root>
        <mxCell id="0" />
        <mxCell id="1" parent="0" />
      </root>
    </mxGraphModel>
  </diagram>
</mxfile>
